<svg width="2553" height="1161" viewBox="0 0 2553 1161" fill="none" xmlns="http://www.w3.org/2000/svg">
<path d="M393.171 1038.01C393.171 1046.92 388.713 1051.38 379.798 1051.38H60.1792C51.2638 1051.38 46.806 1046.92 46.806 1038.01V595.023C46.806 586.108 51.2638 581.65 60.1792 581.65H374.783C383.698 581.65 388.156 586.108 388.156 595.023V676.934C388.156 685.849 383.698 690.307 374.783 690.307H167.164V763.525H326.639C335.555 763.525 340.012 767.982 340.012 776.898V852.122C340.012 861.037 335.555 865.495 326.639 865.495H167.164V942.725H379.798C388.713 942.725 393.171 947.183 393.171 956.098V1038.01ZM700.571 660.217C700.571 651.302 705.029 646.844 713.944 646.844H800.87C809.785 646.844 814.243 651.302 814.243 660.217V1038.01C814.243 1046.92 809.785 1051.38 800.87 1051.38H734.338C726.983 1051.38 721.856 1047.93 718.959 1041.02L704.583 1006.58C688.981 1021.52 669.701 1033.89 646.744 1043.69C623.787 1053.28 601.832 1058.07 580.881 1058.07C548.117 1058.07 519.365 1050.6 494.624 1035.67C469.884 1020.74 450.716 999.672 437.12 972.48C423.524 945.065 416.726 913.415 416.726 877.531V660.217C416.726 651.302 421.183 646.844 430.099 646.844H517.024C525.94 646.844 530.398 651.302 530.398 660.217V864.826C530.398 882.657 533.629 898.371 540.093 911.967C546.78 925.34 556.029 935.704 567.842 943.059C579.878 950.415 593.809 954.092 609.633 954.092C626.35 954.092 641.618 950.192 655.436 942.391C669.478 934.367 680.511 923.891 688.535 910.964C696.559 898.036 700.571 884.329 700.571 869.841V660.217ZM983.015 1038.01C983.015 1046.92 978.558 1051.38 969.642 1051.38H883.72C874.804 1051.38 870.346 1046.92 870.346 1038.01V542.199C870.346 533.284 874.804 528.826 883.72 528.826H969.642C978.558 528.826 983.015 533.284 983.015 542.199V1038.01ZM1223.39 1061.41C1183.05 1061.41 1146.83 1051.94 1114.73 1032.99C1082.64 1014.05 1057.56 988.528 1039.51 956.432C1021.68 924.337 1012.76 889.344 1012.76 851.453C1012.76 813.117 1021.23 777.901 1038.17 745.805C1055.33 713.487 1079.18 687.855 1109.72 668.91C1140.25 649.741 1174.91 640.157 1213.69 640.157C1255.6 640.157 1291.93 649.184 1322.69 667.238C1353.44 685.292 1376.85 710.255 1392.9 742.128C1409.17 774 1417.3 810.219 1417.3 850.785C1417.3 859.7 1416.86 868.504 1415.96 877.197C1415.07 885.443 1410.39 889.567 1401.92 889.567H1129.44C1136.8 911.855 1149.39 929.24 1167.22 941.722C1185.05 954.204 1205.34 960.444 1228.07 960.444C1242.56 960.444 1255.6 958.438 1267.19 954.426C1279 950.192 1290.48 944.174 1301.62 936.373C1304.52 934.144 1307.42 933.029 1310.32 933.029C1313.88 933.029 1317.11 935.035 1320.01 939.047L1361.13 997.555C1363.14 1000.45 1364.14 1003.24 1364.14 1005.91C1364.14 1009.7 1362.36 1013.05 1358.79 1015.94C1340.29 1030.43 1319.57 1041.69 1296.61 1049.71C1273.87 1057.51 1249.47 1061.41 1223.39 1061.41ZM1304.97 805.984C1298.73 783.919 1288.03 766.979 1272.87 755.167C1257.71 743.354 1239.22 737.447 1217.37 737.447C1195.98 737.447 1177.36 743.465 1161.54 755.501C1145.94 767.537 1134.9 784.365 1128.44 805.984H1304.97ZM1660.36 640.157C1687.78 640.157 1714.86 648.07 1741.6 663.895C1746.28 666.792 1748.62 670.358 1748.62 674.593C1748.62 677.045 1747.96 679.608 1746.62 682.283L1708.17 754.498C1705.5 759.401 1702.04 761.853 1697.81 761.853C1695.13 761.853 1692.57 761.073 1690.12 759.513C1674.07 750.597 1658.69 746.14 1643.98 746.14C1629.94 746.14 1616.45 750.152 1603.53 758.175C1590.82 766.199 1580.46 778.124 1572.43 793.949C1564.41 809.551 1560.4 828.385 1560.4 850.45V1038.01C1560.4 1046.92 1555.94 1051.38 1547.02 1051.38H1460.1C1451.18 1051.38 1446.73 1046.92 1446.73 1038.01V660.217C1446.73 651.302 1451.18 646.844 1460.1 646.844H1526.63C1533.98 646.844 1539.11 650.299 1542.01 657.208L1558.39 696.325C1568.87 678.94 1582.91 665.232 1600.52 655.202C1618.12 645.172 1638.07 640.157 1660.36 640.157Z" fill="#8E3EAA"/>
<path d="M323.439 406.461C324.611 408.217 325.196 409.974 325.196 411.73C325.196 413.34 324.537 414.658 323.22 415.683C321.902 416.561 320.073 417 317.731 417H252.298C247.614 417 244.101 415.097 241.759 411.291L160.957 290.966L122.532 335.1V408.217C122.532 414.072 119.604 417 113.749 417H60.1735C54.3182 417 51.3906 414.072 51.3906 408.217V117.285C51.3906 111.43 54.3182 108.502 60.1735 108.502H113.749C119.604 108.502 122.532 111.43 122.532 117.285V238.269L225.95 113.552C228.731 110.186 232.317 108.502 236.709 108.502H303.019C305.361 108.502 307.191 108.941 308.509 109.82C309.826 110.698 310.485 111.942 310.485 113.552C310.485 115.309 309.607 117.212 307.85 119.261L207.067 236.732L323.439 406.461ZM470.637 423.587C444.728 423.587 421.38 417.439 400.594 405.143C379.808 392.701 363.486 375.94 351.63 354.861C339.919 333.782 334.064 310.801 334.064 285.916C334.064 260.885 339.626 237.83 350.751 216.751C361.876 195.526 377.319 178.692 397.081 166.25C416.989 153.807 439.312 147.586 464.05 147.586C490.838 147.586 514.112 153.514 533.874 165.371C553.782 177.228 568.932 193.623 579.325 214.555C589.864 235.341 595.134 258.982 595.134 285.477C595.134 290.161 594.915 295.284 594.475 300.847C593.89 305.97 590.816 308.532 585.253 308.532H403.009C406.083 319.803 411.06 329.611 417.94 337.954C424.82 346.152 433.017 352.446 442.532 356.837C452.193 361.229 462.513 363.425 473.492 363.425C483.738 363.425 493.033 361.961 501.377 359.033C509.867 355.959 517.991 351.568 525.75 345.859C527.653 344.395 529.555 343.663 531.458 343.663C533.947 343.663 536.069 344.981 537.826 347.615L561.32 380.99C562.784 383.186 563.516 385.089 563.516 386.699C563.516 389.188 562.345 391.31 560.003 393.067C547.707 402.728 534.02 410.266 518.943 415.683C504.012 420.952 487.91 423.587 470.637 423.587ZM528.384 258.03C524.579 241.489 517.186 228.681 506.208 219.605C495.376 210.383 482.055 205.772 466.246 205.772C450.876 205.772 437.409 210.457 425.845 219.825C414.427 229.047 406.669 241.782 402.57 258.03H528.384ZM708.728 408.217C708.728 414.072 705.8 417 699.945 417H650.761C644.906 417 641.978 414.072 641.978 408.217V82.5929C641.978 76.7376 644.906 73.81 650.761 73.81H699.945C705.8 73.81 708.728 76.7376 708.728 82.5929V408.217ZM970.109 159.004C971.719 154.32 975.013 151.977 979.989 151.977H1017.54C1023.39 151.977 1026.32 154.905 1026.32 160.76V408.217C1026.32 414.072 1023.39 417 1017.54 417H978.672C973.841 417 970.548 414.585 968.791 409.754L964.4 392.188C945.078 412.535 920.705 422.709 891.283 422.709C866.544 422.709 843.782 416.561 822.996 404.265C802.356 391.969 786.035 375.281 774.032 354.203C762.028 332.977 756.027 309.849 756.027 284.818C756.027 259.787 762.028 236.805 774.032 215.873C786.181 194.794 802.576 178.18 823.216 166.03C844.002 153.734 866.691 147.586 891.283 147.586C921.144 147.586 945.663 157.759 964.839 178.106L970.109 159.004ZM892.38 358.155C905.701 358.155 917.704 355.081 928.39 348.933C939.222 342.639 947.712 334.002 953.86 323.023C960.008 312.045 963.082 299.603 963.082 285.696C963.082 271.79 960.008 259.275 953.86 248.15C947.712 236.878 939.296 228.022 928.61 221.582C917.924 215.141 905.994 211.92 892.82 211.92C879.645 211.92 867.789 215.141 857.249 221.582C846.71 228.022 838.439 236.878 832.438 248.15C826.436 259.275 823.435 271.79 823.435 285.696C823.435 299.603 826.363 312.118 832.218 323.243C838.22 334.222 846.417 342.785 856.81 348.933C867.349 355.081 879.206 358.155 892.38 358.155ZM1179.55 423.587C1140.17 423.587 1105.26 410.193 1074.81 383.406C1072.47 381.503 1071.3 379.38 1071.3 377.038C1071.3 375.135 1072.11 373.159 1073.72 371.11L1098.97 339.711C1101.02 337.222 1103.14 335.978 1105.33 335.978C1106.94 335.978 1108.92 336.783 1111.26 338.393C1121.51 346.005 1132.27 352.08 1143.54 356.618C1154.96 361.009 1166.3 363.205 1177.57 363.205C1186.5 363.205 1193.67 361.302 1199.09 357.496C1204.65 353.544 1207.43 348.201 1207.43 341.467C1207.43 336.93 1205.9 332.977 1202.82 329.611C1199.9 326.244 1194.99 322.95 1188.11 319.73C1181.38 316.51 1171.86 312.923 1159.57 308.971C1137.17 301.652 1118.8 291.625 1104.46 278.89C1090.26 266.154 1083.16 248.735 1083.16 226.632C1083.16 212.725 1086.6 199.771 1093.48 187.768C1100.5 175.764 1111.12 166.103 1125.31 158.784C1139.66 151.319 1157.15 147.586 1177.79 147.586C1192.28 147.586 1207.07 150.44 1222.15 156.149C1237.22 161.712 1250.54 169.909 1262.11 180.741C1264.16 182.644 1265.18 184.694 1265.18 186.889C1265.18 189.085 1264.23 191.134 1262.33 193.037L1232.25 224.216C1230.2 226.266 1228.15 227.29 1226.1 227.29C1224.2 227.29 1222.15 226.412 1219.95 224.656C1213.66 219.825 1206.63 215.873 1198.87 212.799C1191.11 209.578 1183.35 207.968 1175.6 207.968C1166.67 207.968 1159.79 209.798 1154.96 213.457C1150.13 217.117 1147.71 221.874 1147.71 227.73C1147.71 231.828 1149.17 235.488 1152.1 238.708C1155.18 241.782 1160.08 244.856 1166.81 247.93C1173.55 250.858 1182.92 254.224 1194.92 258.03C1219.51 265.789 1238.47 276.035 1251.79 288.77C1265.25 301.359 1271.99 318.632 1271.99 340.589C1271.99 354.935 1268.26 368.475 1260.79 381.21C1253.47 393.945 1242.79 404.192 1228.73 411.95C1214.83 419.708 1198.43 423.587 1179.55 423.587Z" fill="#FFA800"/>
<path d="M2040.79 1050.61C2054.1 1050.61 2063.92 1044.27 2079.77 1030L2196.73 924.454L2404.03 924.771C2499.43 924.771 2553 869.619 2553 775.481V529.2C2553 435.062 2499.43 379.91 2404.03 379.91H1999.9C1904.81 379.91 1850.92 435.062 1850.92 529.2V775.481C1850.92 869.936 1906.39 924.454 1997.68 924.454H2010.36V1016.37C2010.36 1037.29 2021.45 1050.61 2040.79 1050.61Z" fill="#8E3EAA"/>
<path d="M2197.65 777.642C2204.32 777.642 2209.04 773.901 2209.04 767.395C2209.04 764.467 2208.39 762.678 2206.27 758.124C2187.73 726.57 2177.65 692.902 2177.65 655.981C2177.65 620.199 2187.24 585.067 2206.27 553.513C2208.39 548.959 2209.04 547.17 2209.04 544.242C2209.04 538.061 2204.32 533.995 2197.65 533.995C2190.66 533.995 2185.13 537.411 2178.79 546.194C2155.53 576.446 2143.98 614.343 2143.98 655.818C2143.98 697.456 2155.36 734.54 2178.79 765.443C2184.97 774.389 2190.66 777.642 2197.65 777.642ZM2380.79 777.642C2387.79 777.642 2393.48 774.389 2399.66 765.443C2423.25 734.54 2434.47 697.456 2434.47 655.818C2434.47 614.343 2422.76 576.446 2399.66 546.194C2393.48 537.248 2387.79 533.995 2380.79 533.995C2374.13 533.995 2369.41 538.061 2369.41 544.242C2369.41 547.17 2370.06 548.959 2372.17 553.513C2391.2 585.067 2400.8 620.199 2400.8 655.981C2400.8 692.902 2390.72 726.57 2372.17 758.124C2370.06 762.678 2369.41 764.467 2369.41 767.395C2369.41 773.576 2374.13 777.642 2380.79 777.642ZM1994.83 777.479C2028.82 777.479 2044.6 763.329 2052.57 725.594L2070.46 640.042H2099.58C2109.66 640.042 2116.49 634.512 2116.49 624.915C2116.49 616.458 2110.8 611.416 2102.34 611.416H2076.64L2080.87 590.922C2084.94 571.404 2090.96 563.76 2107.87 563.76C2110.64 563.76 2113.08 563.597 2115.03 563.434C2123.97 562.296 2128.36 557.742 2128.36 550.097C2128.36 539.2 2119.74 534.158 2102.02 534.158C2068.51 534.158 2051.76 549.609 2044.28 585.88L2038.91 611.416H2019.06C2008.82 611.416 2001.99 616.946 2001.99 626.379C2001.99 635 2007.68 640.042 2016.3 640.042H2032.89L2015.81 720.552C2011.58 740.558 2005.4 747.877 1988.81 747.877C1986.7 747.877 1984.42 747.877 1982.79 748.04C1974.01 749.341 1969.46 754.383 1969.46 761.702C1969.46 772.437 1978.08 777.479 1994.83 777.479ZM2237.34 737.793C2243.68 737.793 2247.75 735.679 2252.79 728.197L2287.92 677.613H2288.57L2324.52 729.173C2329.4 735.841 2333.46 737.793 2338.99 737.793C2348.59 737.793 2355.1 731.45 2355.1 722.667C2355.1 718.926 2353.96 715.51 2351.35 711.932L2310.04 655.656L2351.03 600.843C2353.96 596.94 2355.26 593.524 2355.26 589.295C2355.26 580.512 2348.43 574.657 2339.81 574.657C2332.81 574.657 2328.91 578.073 2324.68 584.416L2291.17 634.024H2290.36L2256.53 584.253C2252.3 577.747 2248.07 574.657 2240.43 574.657C2231.16 574.657 2224.16 581.651 2224.16 590.109C2224.16 595.313 2225.79 598.729 2228.39 602.145L2268.08 655.331L2226.44 712.42C2223.19 716.486 2222.37 719.902 2222.37 723.968C2222.37 731.938 2229.04 737.793 2237.34 737.793Z" fill="white"/>
<path d="M1732.5 486.285C1750.71 486.285 1761.49 473.477 1761.49 453.478V398.425H1770.48C1835.42 398.425 1874.52 359.551 1874.52 292.589V117.993C1874.52 51.255 1836.54 12.1562 1768.91 12.1562H1482.41C1415 12.1562 1376.8 51.255 1376.8 117.993V292.589C1376.8 359.326 1415 398.425 1482.41 398.425H1617.68L1694.75 466.286C1710.26 479.993 1719.7 486.285 1732.5 486.285ZM1721.49 435.951L1650.26 365.618C1640.6 355.731 1634.08 353.484 1620.38 353.484H1483.98C1441.96 353.484 1421.51 332.137 1421.51 291.24V119.341C1421.51 78.4444 1441.96 57.0973 1483.98 57.0973H1767.56C1809.8 57.0973 1829.8 78.4444 1829.8 119.341V291.24C1829.8 332.137 1809.8 353.484 1767.56 353.484H1739.92C1727.11 353.484 1721.49 358.652 1721.49 371.91V435.951Z" fill="#8E3EAA"/>
<path d="M1571.1 313.047H1704.52C1709.95 313.047 1714.16 308.905 1714.16 303.551C1714.16 299.004 1710.98 295.67 1707.08 293.852C1694.47 288.295 1692.01 271.12 1704.83 259.098C1710.06 254.552 1714.05 249.5 1714.05 239.296V127.457C1714.05 105.635 1702.67 94.2188 1680.62 94.2188H1571.31C1549.36 94.2188 1537.88 105.534 1537.88 127.457V280.112C1537.88 301.732 1549.36 313.047 1571.1 313.047ZM1569.77 246.469C1566.39 246.469 1563.52 243.742 1563.52 240.307V117.354C1563.52 113.919 1566.39 111.192 1569.77 111.192C1573.16 111.192 1576.03 113.919 1576.03 117.354V240.307C1576.03 243.742 1573.16 246.469 1569.77 246.469ZM1611.1 217.979C1605.97 217.979 1602.89 215.049 1602.89 210.402C1602.89 208.887 1603.2 207.27 1604.02 204.845L1627.2 142.41C1629.45 136.045 1633.66 132.913 1639.91 132.913C1646.37 132.913 1650.68 136.045 1652.94 142.41L1676.11 204.845C1676.93 207.27 1677.24 208.887 1677.24 210.402C1677.24 214.948 1674.06 217.979 1669.04 217.979C1664.83 217.979 1662.06 215.959 1660.53 210.806L1655.09 194.844H1625.04L1619.51 210.806C1618.07 215.959 1615.2 217.979 1611.1 217.979ZM1628.74 182.316H1651.4L1640.53 149.785H1639.61L1628.74 182.316ZM1573.87 294.054C1562.9 294.054 1557.16 287.891 1557.16 278.394C1557.16 269.201 1563.72 262.836 1574.59 262.836H1676.93C1678.06 262.836 1679.19 262.735 1680.21 262.533C1675.09 273.242 1675.7 284.86 1681.24 294.054H1573.87Z" fill="#8E3EAA"/>
</svg>
